<?xml version="1.0" encoding="UTF-8" standalone="no"?><!DOCTYPE svg PUBLIC "-//W3C//DTD SVG 1.1//EN" "http://www.w3.org/Graphics/SVG/1.1/DTD/svg11.dtd"><svg width="100%" height="100%" viewBox="0 0 16 16" version="1.1" xmlns="http://www.w3.org/2000/svg" xmlns:xlink="http://www.w3.org/1999/xlink" xml:space="preserve" xmlns:serif="http://www.serif.com/" style="fill-rule:evenodd;clip-rule:evenodd;stroke-linejoin:round;stroke-miterlimit:2;"><path d="M7.975,2.258l4.142,2.278l-0,4.664c-0,0.156 -0.068,0.271 -0.202,0.347c-0.135,0.076 -0.273,0.072 -0.414,-0.012l-1.007,-0.55c-0.141,-0.084 -0.28,-0.126 -0.416,-0.126c-0.137,-0 -0.275,0.042 -0.416,0.126l-1.109,0.45c-0.141,0.084 -0.276,0.088 -0.406,0.012c-0.131,-0.076 -0.196,-0.192 -0.196,-0.348l0.024,-6.841Zm-0.024,6.86l0,-0.019c0,0.156 0.065,0.272 0.196,0.348c0.13,0.076 0.265,0.072 0.406,-0.012l1.109,-0.45c0.141,-0.084 0.279,-0.126 0.416,-0.126c0.136,-0 0.275,0.042 0.416,0.126l1.007,0.55c0.141,0.084 0.279,0.088 0.414,0.012c0.134,-0.076 0.202,-0.191 0.202,-0.347l-0,0.018c-0,0.144 -0.068,0.253 -0.202,0.329c-0.135,0.076 -0.273,0.079 -0.414,0.007l-1.007,-0.569c-0.141,-0.084 -0.28,-0.126 -0.416,-0.126c-0.137,-0 -0.275,0.042 -0.416,0.126l-1.109,0.468c-0.141,0.072 -0.276,0.07 -0.406,-0.006c-0.131,-0.076 -0.196,-0.186 -0.196,-0.329Z" style="fill:#ae2012;fill-rule:nonzero;"/><path d="M0.019,4.681l7.981,-4.681l7.981,4.681l0.019,11.319l-15.981,-0l0,-11.319Zm2.5,1.432l5.481,-3.215c0,0 5.483,3.216 5.483,3.216c-0,0 0.013,7.386 0.013,7.386c-0,-0 -10.977,-0 -10.977,-0l0,-7.387Z" style="fill:#ae2012;"/></svg>